<svg xmlns="http://www.w3.org/2000/svg" viewBox="0 0 64 64" width="64" height="64">
  <title>plotsim · favicon </title>
  <rect width="64" height="64" rx="14" fill="#0e1620"></rect>
  <g transform="translate(8 14.72) scale(0.48)">
    <path d="M 4 50 C 14 48, 26 52, 38 50 S 56 46, 68 50 S 88 52, 96 48" fill="none" stroke="#5a6b7a" stroke-width="4.2" stroke-linecap="round" opacity="0.85"></path>
    <path d="M 4 56 C 12 50, 18 44, 26 36 S 40 26, 50 44 C 58 56, 66 60, 74 56 S 88 50, 96 52" fill="none" stroke="#e9b04a" stroke-width="5.6" stroke-linecap="round"></path>
    <path d="M 4 60 C 12 58, 18 50, 24 38 S 38 12, 50 10 C 60 9, 66 22, 72 36 S 84 60, 96 62" fill="none" stroke="#3ecfc1" stroke-width="7" stroke-linecap="round"></path>
  </g>
</svg>
