<svg xmlns="http://www.w3.org/2000/svg" viewBox="0 0 360 320" width="360" height="320">
  <title>plotsim · lockup · stacked · dark</title>
  <rect width="360" height="320" fill="#0e1620"></rect>
  <g transform="translate(80, 60) scale(2)">
    <g opacity="0.4">
      <line x1="4" y1="16" x2="96" y2="16" stroke="#9aa8b8" stroke-width="0.3" stroke-dasharray="1 2"></line>
      <line x1="4" y1="32" x2="96" y2="32" stroke="#9aa8b8" stroke-width="0.3" stroke-dasharray="1 2"></line>
      <line x1="4" y1="48" x2="96" y2="48" stroke="#9aa8b8" stroke-width="0.3" stroke-dasharray="1 2"></line>
      <line x1="4" y1="64" x2="96" y2="64" stroke="#9aa8b8" stroke-width="0.3" stroke-dasharray="1 2"></line>
    </g>
    <path d="M 4 50 C 14 48, 26 52, 38 50 S 56 46, 68 50 S 88 52, 96 48" fill="none" stroke="#5a6b7a" stroke-width="1.2" opacity="0.7"></path>
    <path d="M 4 56 C 12 50, 18 44, 26 36 S 40 26, 50 44 C 58 56, 66 60, 74 56 S 88 50, 96 52" fill="none" stroke="#e9b04a" stroke-width="1.6"></path>
    <path d="M 4 60 C 12 58, 18 50, 24 38 S 38 12, 50 10 C 60 9, 66 22, 72 36 S 84 60, 96 62" fill="none" stroke="#3ecfc1" stroke-width="2" stroke-linecap="round"></path>
    <circle cx="62" cy="32" r="2" fill="#3ecfc1"></circle>
  </g>
  <text x="180" y="270" text-anchor="middle" font-family="Inter, system-ui, sans-serif" font-weight="600" font-size="56" letter-spacing="-2.2" fill="#e6eef5">plot<tspan font-weight="700" fill="#3ecfc1">.</tspan>sim</text>
</svg>