<svg xmlns="http://www.w3.org/2000/svg" viewBox="0 0 600 160" width="600" height="160">
  <title>plotsim · lockup · horizontal · light</title>
  <rect width="600" height="160" fill="#ffffff"></rect>
  <g transform="translate(40, 40) scale(1.1)">
    <g opacity="0.4">
      <line x1="4" y1="16" x2="96" y2="16" stroke="#5a6b7a" stroke-width="0.3" stroke-dasharray="1 2"></line>
      <line x1="4" y1="32" x2="96" y2="32" stroke="#5a6b7a" stroke-width="0.3" stroke-dasharray="1 2"></line>
      <line x1="4" y1="48" x2="96" y2="48" stroke="#5a6b7a" stroke-width="0.3" stroke-dasharray="1 2"></line>
      <line x1="4" y1="64" x2="96" y2="64" stroke="#5a6b7a" stroke-width="0.3" stroke-dasharray="1 2"></line>
    </g>
    <line x1="4" y1="64" x2="96" y2="64" stroke="#5a6b7a" stroke-width="0.5" opacity="0.6"></line>
    <path d="M 4 50 C 14 48, 26 52, 38 50 S 56 46, 68 50 S 88 52, 96 48" fill="none" stroke="#9aa8b8" stroke-width="1.2" opacity="0.55"></path>
    <path d="M 4 56 C 12 50, 18 44, 26 36 S 40 26, 50 44 C 58 56, 66 60, 74 56 S 88 50, 96 52" fill="none" stroke="#c98a1f" stroke-width="1.6"></path>
    <path d="M 4 60 C 12 58, 18 50, 24 38 S 38 12, 50 10 C 60 9, 66 22, 72 36 S 84 60, 96 62" fill="none" stroke="#1a9a8c" stroke-width="2" stroke-linecap="round"></path>
    <line x1="62" y1="6" x2="62" y2="64" stroke="#1a9a8c" stroke-width="0.6" opacity="0.5" stroke-dasharray="1 1.5"></line>
    <circle cx="62" cy="32" r="2" fill="#1a9a8c"></circle>
  </g>
  <text x="170" y="103" font-family="Inter, system-ui, sans-serif" font-weight="600" font-size="72" letter-spacing="-2.9" fill="#0e1620">plot<tspan font-weight="700" fill="#1a9a8c">.</tspan>sim</text>
</svg>