<svg xmlns="http://www.w3.org/2000/svg" viewBox="0 0 100 72" width="200" height="144">
  <title>plotsim · mark · monochrome</title>
  <g opacity="0.25">
    <line x1="4" y1="16" x2="96" y2="16" stroke="currentColor" stroke-width="0.3" stroke-dasharray="1 2"></line>
    <line x1="4" y1="32" x2="96" y2="32" stroke="currentColor" stroke-width="0.3" stroke-dasharray="1 2"></line>
    <line x1="4" y1="48" x2="96" y2="48" stroke="currentColor" stroke-width="0.3" stroke-dasharray="1 2"></line>
    <line x1="4" y1="64" x2="96" y2="64" stroke="currentColor" stroke-width="0.3" stroke-dasharray="1 2"></line>
  </g>
  <path d="M 4 50 C 14 48, 26 52, 38 50 S 56 46, 68 50 S 88 52, 96 48" fill="none" stroke="currentColor" stroke-width="1.2" opacity="0.45"></path>
  <path d="M 4 56 C 12 50, 18 44, 26 36 S 40 26, 50 44 C 58 56, 66 60, 74 56 S 88 50, 96 52" fill="none" stroke="currentColor" stroke-width="1.6" opacity="0.65"></path>
  <path d="M 4 60 C 12 58, 18 50, 24 38 S 38 12, 50 10 C 60 9, 66 22, 72 36 S 84 60, 96 62" fill="none" stroke="currentColor" stroke-width="2" stroke-linecap="round"></path>
</svg>